<?xml version="1.0" encoding="UTF-8" standalone="no"?>
<!-- Generator: Adobe Illustrator 15.0.2, SVG Export Plug-In . SVG Version: 6.00 Build 0)  -->

<svg
   xmlns:dc="http://purl.org/dc/elements/1.1/"
   xmlns:cc="http://creativecommons.org/ns#"
   xmlns:rdf="http://www.w3.org/1999/02/22-rdf-syntax-ns#"
   xmlns:svg="http://www.w3.org/2000/svg"
   xmlns="http://www.w3.org/2000/svg"
   xmlns:sodipodi="http://sodipodi.sourceforge.net/DTD/sodipodi-0.dtd"
   xmlns:inkscape="http://www.inkscape.org/namespaces/inkscape"
   version="1.1"
   id="Layer_1"
   x="0px"
   y="0px"
   width="200px"
   height="45px"
   viewBox="0 0 200 45"
   enable-background="new 0 0 200 45"
   xml:space="preserve"
   sodipodi:docname="NJTLogo.svg"
   inkscape:version="0.92.1 r15371"><metadata
     id="metadata4619"><rdf:RDF><cc:Work
         rdf:about=""><dc:format>image/svg+xml</dc:format><dc:type
           rdf:resource="http://purl.org/dc/dcmitype/StillImage" /></cc:Work></rdf:RDF></metadata><defs
     id="defs4617" /><sodipodi:namedview
     pagecolor="#ffffff"
     bordercolor="#666666"
     borderopacity="1"
     objecttolerance="10"
     gridtolerance="10"
     guidetolerance="10"
     inkscape:pageopacity="0"
     inkscape:pageshadow="2"
     inkscape:window-width="1920"
     inkscape:window-height="986"
     id="namedview4615"
     showgrid="false"
     showguides="true"
     inkscape:guide-bbox="true"
     inkscape:lockguides="true"
     inkscape:zoom="8"
     inkscape:cx="5.1487778"
     inkscape:cy="29.504783"
     inkscape:window-x="-11"
     inkscape:window-y="-11"
     inkscape:window-maximized="1"
     inkscape:current-layer="Layer_1"><sodipodi:guide
       position="13.34664,38.802485"
       orientation="1,0"
       id="guide5176"
       inkscape:locked="true" /></sodipodi:namedview><path
     style="fill:#000000"
     d="M 5.5644531,0.71289062 6.7949219,2.5605469 A 0.54560001,0.54560001 0 0 0 6.796875,2.5625 L 8.7714844,5.5566406 C 8.7549745,3.3282412 8.7382812,0.71289063 8.7382812,0.71289062 l -0.2128906,0.001953 v -0.001953 z"
     id="path5210" /><path
     style="fill:#000000"
     d="M 9.0390625,14.792969 4.8320312,9.4472656 v 6.0585934 c 2e-7,1.769055 2.914537,6.118447 8.5136718,6.123047 5.599135,-0.0046 8.513672,-4.353992 8.513672,-6.123047 V 0.734375 h -0.150391 v -0.0214844 h -3.542968 v 0.001953 l -0.212891,-0.001953 c 0,0 -0.0978,12.89704738 -0.0918,13.12304738 0.03307,1.143881 -1.392468,3.854282 -4.515625,4.003906 -2.428393,-0.11634 -3.8185692,-1.774348 -4.3066405,-3.046875 z"
     id="path5186" /><path
     d="M 3.946,7.437 V 21.596 H 0.461 V 2.863 C 0.952,-0.622 5.035,0.902 5.035,0.902 l 1.307,1.961 6.754,10.239 V 0.684 h 3.92 v 12.852 c -1.306,4.302 -5.01,3.159 -5.01,3.159 -0.554509,-0.190345 -1.107397,-0.408248 -1.633,-1.09 z"
     id="path4566"
     inkscape:connector-curvature="0"
     sodipodi:nodetypes="ccccccccccccc" /><polygon
     fill="#F5853E"
     points="112.099,1.011 129.308,1.011 158.934,43.925 142.16,43.925 "
     id="polygon4604" /><polygon
     fill="#B61D8E"
     points="128.106,1.011 145.316,1.011 174.94,43.925 158.168,43.925 "
     id="polygon4606" /><polygon
     fill="#004F99"
     points="144.605,1.011 161.815,1.011 191.441,43.925 174.666,43.925 "
     id="polygon4608" /><path
     d="M195.658,40.722h0.429c0.487,0,0.9-0.178,0.9-0.635c0-0.323-0.236-0.649-0.9-0.649c-0.192,0-0.324,0.016-0.429,0.031V40.722  z M195.658,42.772h-0.589v-3.701c0.31-0.046,0.604-0.09,1.047-0.09c0.562,0,0.929,0.118,1.15,0.281  c0.222,0.162,0.339,0.414,0.339,0.767c0,0.488-0.324,0.781-0.723,0.899v0.031c0.325,0.059,0.547,0.354,0.62,0.899  c0.088,0.574,0.178,0.796,0.236,0.915h-0.62c-0.089-0.119-0.178-0.458-0.249-0.946c-0.09-0.47-0.325-0.646-0.798-0.646h-0.414  V42.772z M196.277,38.037c-1.46,0-2.653,1.254-2.653,2.802c0,1.579,1.193,2.817,2.669,2.817c1.476,0.015,2.655-1.238,2.655-2.803  c0-1.563-1.18-2.817-2.655-2.817H196.277z M196.293,37.521c1.813,0,3.26,1.476,3.26,3.318c0,1.875-1.446,3.334-3.275,3.334  c-1.813,0-3.287-1.46-3.287-3.334c0-1.842,1.474-3.318,3.287-3.318H196.293z"
     id="path4612" /><g
     aria-label="MTOT"
     style="font-style:normal;font-variant:normal;font-weight:bold;font-stretch:normal;font-size:18.66666603px;line-height:1.25;font-family:'TeX Gyre Heros';-inkscape-font-specification:'TeX Gyre Heros Bold';font-variant-ligatures:normal;font-variant-caps:normal;font-variant-numeric:normal;text-align:start;letter-spacing:0px;word-spacing:0px;writing-mode:lr-tb;text-anchor:start;fill:#000000;fill-opacity:1;stroke:none"
     id="text5216"><path
       d="M 37.610333,14.8125 V 1.2045005 H 33.391666 L 31.002333,12.031167 28.538333,1.2045005 H 24.357 V 14.8125 h 2.8 V 4.2098337 L 29.602333,14.8125 h 2.8 l 2.408,-10.6026663 V 14.8125 Z"
       style=""
       id="path5255" /><path
       d="M 49.855374,3.5378337 V 1.2045005 H 38.954041 v 2.3333332 h 4.125334 V 14.8125 h 2.799999 V 3.5378337 Z"
       style=""
       id="path5257" /><path
       d="m 63.590248,8.0925002 c 0,-4.1066665 -2.594666,-7.11199973 -6.570666,-7.11199973 -3.994667,0 -6.533333,3.11733323 -6.533333,7.01866643 0,4.0693331 2.557333,7.0373331 6.551999,7.0373331 3.957334,0 6.552,-2.968 6.552,-6.9439998 z m -2.8,-0.018667 c 0,2.7813334 -1.512,4.5733334 -3.752,4.5733334 -2.258666,0 -3.751999,-1.792 -3.751999,-4.6480001 0,-2.7439999 1.493333,-4.6293332 3.751999,-4.6293332 2.296,0 3.752,1.8666666 3.752,4.7039999 z"
       style=""
       id="path5259" /><path
       d="M 75.04808,3.5378337 V 1.2045005 H 64.146747 v 2.3333332 h 4.125334 V 14.8125 h 2.8 V 3.5378337 Z"
       style=""
       id="path5261" /></g><g
     aria-label="The way to ???."
     style="font-style:normal;font-variant:normal;font-weight:normal;font-stretch:normal;font-size:10.66666698px;line-height:1.25;font-family:'TeX Gyre Heros';-inkscape-font-specification:'TeX Gyre Heros';font-variant-ligatures:normal;font-variant-caps:normal;font-variant-numeric:normal;text-align:start;letter-spacing:0px;word-spacing:0px;writing-mode:lr-tb;text-anchor:start;fill:#000000;fill-opacity:1;stroke:none"
     id="text5220"><path
       d="m 28.474667,23.808666 v -0.874667 h -6.101333 v 0.874667 h 2.56 v 6.901333 h 0.992 v -6.901333 z"
       style="font-size:10.66666698px"
       id="path5230" /><path
       d="m 33.854168,30.709999 v -4.224 c 0,-0.938667 -0.672,-1.525333 -1.76,-1.525333 -0.789334,0 -1.269334,0.245333 -1.792001,0.928 v -2.954667 h -0.885333 v 7.776 h 0.885333 v -3.082667 c 0,-1.141333 0.597334,-1.888 1.514667,-1.888 0.629334,0 1.152,0.362667 1.152,1.098667 v 3.872 z"
       style="font-size:10.66666698px"
       id="path5232" /><path
       d="m 40.079668,28.171332 c 0,-0.810666 -0.064,-1.322666 -0.224,-1.738666 -0.362667,-0.917334 -1.216,-1.472 -2.261333,-1.472 -1.557334,0 -2.56,1.152 -2.56,2.986666 0,1.834667 0.970666,2.922667 2.538666,2.922667 1.28,0 2.165334,-0.725333 2.389334,-1.856 h -0.896 c -0.245334,0.736 -0.746667,1.034667 -1.461334,1.034667 -0.928,0 -1.621333,-0.597334 -1.642666,-1.877334 z m -0.949333,-0.789333 c 0,0 0,0.04267 -0.01067,0.064 h -3.136 c 0.07467,-0.992 0.704,-1.664 1.6,-1.664 0.874667,0 1.546667,0.725333 1.546667,1.6 z"
       style="font-size:10.66666698px"
       id="path5234" /><path
       d="m 51.055502,25.120666 h -1.002667 l -1.109333,4.352 -1.098667,-4.352 h -1.088 l -1.066666,4.352 -1.141334,-4.352 h -0.981333 l 1.621333,5.589333 h 1.002667 l 1.077333,-4.384 1.130667,4.384 h 1.013333 z"
       style="font-size:10.66666698px"
       id="path5236" /><path
       d="m 56.751835,30.688666 v -0.672 c -0.096,0.02133 -0.138667,0.02133 -0.192,0.02133 -0.309334,0 -0.48,-0.16 -0.48,-0.437333 v -3.114667 c 0,-0.992 -0.725334,-1.525333 -2.101334,-1.525333 -1.354666,0 -2.186666,0.522666 -2.24,1.813333 h 0.896 c 0.07467,-0.682667 0.48,-0.992 1.312,-0.992 0.8,0 1.248,0.298667 1.248,0.832 v 0.234667 c 0,0.373333 -0.224,0.533333 -0.928,0.618666 -1.258666,0.16 -1.450666,0.202667 -1.792,0.341334 -0.650666,0.266666 -0.981333,0.768 -0.981333,1.450666 0,1.013334 0.704,1.610667 1.834667,1.610667 0.714666,0 1.408,-0.298667 1.898666,-0.821333 0.096,0.426666 0.48,0.736 0.917334,0.736 0.181333,0 0.32,-0.02133 0.608,-0.096 z m -1.557334,-1.909334 c 0,0.8 -0.810666,1.312 -1.674666,1.312 -0.693334,0 -1.098667,-0.245333 -1.098667,-0.853333 0,-0.586667 0.394667,-0.842667 1.344,-0.981333 0.938667,-0.128 1.130667,-0.170667 1.429333,-0.309334 z"
       style="font-size:10.66666698px"
       id="path5238" /><path
       d="m 61.810501,25.120666 h -0.96 l -1.546667,4.352 -1.429333,-4.352 h -0.949334 l 1.888,5.610666 -0.341333,0.885334 c -0.149333,0.394666 -0.330667,0.544 -0.714667,0.544 -0.128,0 -0.277333,-0.02133 -0.469333,-0.064 v 0.8 c 0.181333,0.096 0.362667,0.138666 0.597333,0.138666 0.629334,0 1.141334,-0.352 1.44,-1.152 z"
       style="font-size:10.66666698px"
       id="path5240" /><path
       d="m 67.712835,30.709999 v -0.746667 c -0.117333,0.032 -0.256,0.04267 -0.426666,0.04267 -0.384,0 -0.490667,-0.106667 -0.490667,-0.501333 v -3.658667 h 0.917333 v -0.725333 h -0.917333 v -1.536 h -0.885333 v 1.536 h -0.757334 v 0.725333 h 0.757334 v 4.053333 c 0,0.565334 0.384,0.885334 1.077333,0.885334 0.213333,0 0.426667,-0.02133 0.725333,-0.07467 z"
       style="font-size:10.66666698px"
       id="path5242" /><path
       d="m 73.29767,27.957999 c 0,-1.930667 -0.928,-2.997333 -2.538667,-2.997333 -1.568,0 -2.517333,1.077333 -2.517333,2.954666 0,1.877334 0.938667,2.954667 2.528,2.954667 1.568,0 2.528,-1.077333 2.528,-2.912 z m -0.928,-0.01067 c 0,1.312 -0.618667,2.101334 -1.6,2.101334 -0.992,0 -1.6,-0.778667 -1.6,-2.133334 0,-1.344 0.608,-2.133333 1.6,-2.133333 1.002667,0 1.6,0.778667 1.6,2.165333 z"
       style="font-size:10.66666698px"
       id="path5244" /><path
       d="m 82.108169,24.853999 c 0,-1.248 -0.885334,-2.048 -2.272,-2.048 -1.536,0 -2.336,0.853333 -2.336,2.496 h 0.906666 c 0,-1.162667 0.426667,-1.664 1.376,-1.664 0.821334,0 1.365334,0.490667 1.365334,1.216 0,0.490667 -0.234667,0.906667 -0.8,1.408 -0.629334,0.565333 -0.629334,0.565333 -0.810667,0.810667 -0.224,0.298666 -0.298667,0.544 -0.298667,0.928 v 0.586666 h 0.96 v -0.501333 c 0,-0.458667 0.117334,-0.650667 0.842667,-1.322667 0.8,-0.725333 1.066667,-1.205333 1.066667,-1.909333 z m -1.909334,5.856 v -1.109333 h -0.96 v 1.109333 z"
       style="font-size:10.66666698px"
       id="path5246" /><path
       d="m 88.045669,24.853999 c 0,-1.248 -0.885334,-2.048 -2.272,-2.048 -1.536,0 -2.336,0.853333 -2.336,2.496 h 0.906666 c 0,-1.162667 0.426667,-1.664 1.376,-1.664 0.821334,0 1.365334,0.490667 1.365334,1.216 0,0.490667 -0.234667,0.906667 -0.8,1.408 -0.629334,0.565333 -0.629334,0.565333 -0.810667,0.810667 -0.224,0.298666 -0.298667,0.544 -0.298667,0.928 v 0.586666 h 0.96 v -0.501333 c 0,-0.458667 0.117334,-0.650667 0.842667,-1.322667 0.8,-0.725333 1.066667,-1.205333 1.066667,-1.909333 z m -1.909334,5.856 v -1.109333 h -0.96 v 1.109333 z"
       style="font-size:10.66666698px"
       id="path5248" /><path
       d="m 93.983173,24.853999 c 0,-1.248 -0.885334,-2.048 -2.272001,-2.048 -1.536,0 -2.336,0.853333 -2.336,2.496 h 0.906667 c 0,-1.162667 0.426667,-1.664 1.376,-1.664 0.821333,0 1.365334,0.490667 1.365334,1.216 0,0.490667 -0.234667,0.906667 -0.800001,1.408 -0.629333,0.565333 -0.629333,0.565333 -0.810666,0.810667 -0.224,0.298666 -0.298667,0.544 -0.298667,0.928 v 0.586666 h 0.96 v -0.501333 c 0,-0.458667 0.117333,-0.650667 0.842667,-1.322667 0.8,-0.725333 1.066667,-1.205333 1.066667,-1.909333 z m -1.909334,5.856 v -1.109333 h -0.96 v 1.109333 z"
       style="font-size:10.66666698px"
       id="path5250" /><path
       d="m 96.603339,30.709999 v -1.109333 h -1.109333 v 1.109333 z"
       style="font-size:10.66666698px"
       id="path5252" /></g><text
     id="text5224"
     y="14.8125"
     x="23.125"
     style="font-style:normal;font-variant:normal;font-weight:bold;font-stretch:normal;font-size:18.66666603px;line-height:1.25;font-family:'TeX Gyre Heros';-inkscape-font-specification:'TeX Gyre Heros Bold';font-variant-ligatures:normal;font-variant-caps:normal;font-variant-numeric:normal;text-align:start;letter-spacing:0px;word-spacing:0px;writing-mode:lr-tb;text-anchor:start;fill:none;fill-opacity:1;stroke:none;"
     xml:space="preserve"><tspan
       y="14.8125"
       x="23.125"
       id="tspan5222"
       sodipodi:role="line">MTOT</tspan></text>
<text
     id="text5228"
     y="30.709999"
     x="22.149334"
     style="font-style:normal;font-variant:normal;font-weight:normal;font-stretch:normal;font-size:10.66666698px;line-height:1.25;font-family:'TeX Gyre Heros';-inkscape-font-specification:'TeX Gyre Heros';font-variant-ligatures:normal;font-variant-caps:normal;font-variant-numeric:normal;text-align:start;letter-spacing:0px;word-spacing:0px;writing-mode:lr-tb;text-anchor:start;fill:none;fill-opacity:1;stroke:none;"
     xml:space="preserve"><tspan
       style="font-size:10.66666698px;fill:none;"
       y="30.709999"
       x="22.149334"
       id="tspan5226"
       sodipodi:role="line">The way to ???.</tspan></text>
</svg>