<?xml version="1.0" encoding="UTF-8" standalone="no"?>
<!-- Generator: Adobe Illustrator 18.0.0, SVG Export Plug-In . SVG Version: 6.00 Build 0)  -->

<svg
   xmlns:dc="http://purl.org/dc/elements/1.1/"
   xmlns:cc="http://creativecommons.org/ns#"
   xmlns:rdf="http://www.w3.org/1999/02/22-rdf-syntax-ns#"
   xmlns:svg="http://www.w3.org/2000/svg"
   xmlns="http://www.w3.org/2000/svg"
   xmlns:sodipodi="http://sodipodi.sourceforge.net/DTD/sodipodi-0.dtd"
   xmlns:inkscape="http://www.inkscape.org/namespaces/inkscape"
   version="1.1"
   id="Layer_1"
   x="0px"
   y="0px"
   viewBox="0 0 998.023 207"
   enable-background="new 0 0 722.8 207"
   xml:space="preserve"
   sodipodi:docname="numtot-sh.svg"
   width="998.02301"
   height="207"
   inkscape:version="0.92.1 r15371"
   inkscape:export-filename="C:\Users\Arthur2e5\Downloads\numtot-sh.png"
   inkscape:export-xdpi="450"
   inkscape:export-ydpi="450"><metadata
     id="metadata21"><rdf:RDF><cc:Work
         rdf:about=""><dc:format>image/svg+xml</dc:format><dc:type
           rdf:resource="http://purl.org/dc/dcmitype/StillImage" /><dc:title /></cc:Work></rdf:RDF></metadata><defs
     id="defs19" /><sodipodi:namedview
     pagecolor="#ffffff"
     bordercolor="#666666"
     borderopacity="1"
     objecttolerance="10"
     gridtolerance="10"
     guidetolerance="10"
     inkscape:pageopacity="0"
     inkscape:pageshadow="2"
     inkscape:window-width="1920"
     inkscape:window-height="986"
     id="namedview17"
     showgrid="false"
     fit-margin-top="0"
     fit-margin-left="0"
     fit-margin-right="0"
     fit-margin-bottom="0"
     inkscape:zoom="0.76697804"
     inkscape:cx="500.36591"
     inkscape:cy="182.77541"
     inkscape:window-x="-11"
     inkscape:window-y="-11"
     inkscape:window-maximized="1"
     inkscape:current-layer="Layer_1" /><path
     style="clip-rule:evenodd;fill:#ec1c24;fill-rule:evenodd;stroke-width:1.00048339"
     d="m 103.40039,207 c -9.50918,0 -18.71931,-1.29922 -27.42773,-3.69922 V 159.20117 147.10156 L 75.94726,99.46094 H 59.88476 V 70.22851 H 75.86719 C 75.502006,60.525172 75.67383,46.810065 75.67383,37.10156 50.04908,48.20156 28.22656,73.8 28.22656,103.5 c 0,24.5 14.51436,46.20078 34.03321,59.30078 v 35.59961 C 25.62438,182.40039 0,146 0,103.5 0,46.3 46.34429,0 103.59961,0 c 1.00096,0 2.00294,0.002 3.00391,0.10156 l -0.20118,31.09961 V 46 70.22851 h 26.85938 V 99.46094 H 106.40234 V 157 175.70117 c 38.53724,-1.6 69.4668,-33.40078 69.4668,-72.30078 0,-34.1 -23.72246,-62.69883 -55.45312,-70.29883 V 1.30078 C 169.46341,9.40078 207,52.1 207,103.5 207,160.7 160.65571,207 103.40039,207 Z"
     id="path14"
     inkscape:connector-curvature="0"
     sodipodi:nodetypes="sccccccccsccsscccccccccsccss" /><text
     xml:space="preserve"
     style="font-style:normal;font-variant:normal;font-weight:bold;font-stretch:normal;font-size:192px;line-height:1.25;font-family:'Comic Neue Angular';-inkscape-font-specification:'Comic Neue Angular Bold';font-variant-ligatures:normal;font-variant-caps:normal;font-variant-numeric:normal;text-align:start;letter-spacing:0px;word-spacing:0px;writing-mode:lr-tb;text-anchor:start;opacity:0.98000004;fill:#000000;fill-opacity:1;stroke:none"
     x="230.29898"
     y="168.97922"
     id="text4509"><tspan
       sodipodi:role="line"
       id="tspan4507"
       x="230.29898"
       y="168.97922">NUMTOT</tspan></text>
</svg>