<?xml version="1.0" encoding="UTF-8"?>
<!-- Generator: Adobe Illustrator 16.0.0, SVG Export Plug-In . SVG Version: 6.00 Build 0)  -->
<svg width="1.6714in" height="1.6714in" enable-background="new 0 0 134.333 207.581" version="1.1" viewBox="0 0 160.45 160.45" xml:space="preserve" xmlns="http://www.w3.org/2000/svg" xmlns:cc="http://creativecommons.org/ns#" xmlns:dc="http://purl.org/dc/elements/1.1/" xmlns:rdf="http://www.w3.org/1999/02/22-rdf-syntax-ns#" xmlns:xlink="http://www.w3.org/1999/xlink"><metadata><rdf:RDF><cc:Work rdf:about=""><dc:format>image/svg+xml</dc:format><dc:type rdf:resource="http://purl.org/dc/dcmitype/StillImage"/><cc:license rdf:resource="http://creativecommons.org/licenses/by/4.0/"/></cc:Work><cc:License rdf:about="http://creativecommons.org/licenses/by/4.0/"><cc:permits rdf:resource="http://creativecommons.org/ns#Reproduction"/><cc:permits rdf:resource="http://creativecommons.org/ns#Distribution"/><cc:requires rdf:resource="http://creativecommons.org/ns#Notice"/><cc:requires rdf:resource="http://creativecommons.org/ns#Attribution"/><cc:permits rdf:resource="http://creativecommons.org/ns#DerivativeWorks"/></cc:License></rdf:RDF></metadata><defs><linearGradient id="linearGradient1037" x1="7.0367" x2="7.0367" y1="-1.4305e-5" y2="207.58" gradientTransform="matrix(1.1221 0 0 .77297 -1.25e-5 1.3824e-5)" gradientUnits="userSpaceOnUse"><stop stop-color="#79419d" offset="0"/><stop stop-color="#592d92" offset="1"/></linearGradient></defs>
<rect width="160.45" height="160.45" fill="url(#linearGradient1037)" fill-rule="evenodd"/><g transform="translate(13.077 -.95973)">
	<g stroke-width=".5">
		
		
		
		
		
		
		
		
		
		
		
		
		
		
	</g>
	
</g><g fill="#fff">
<path d="m16.474 143.98 127.51-127.51" stroke="#f9f9f9" stroke-linecap="square" stroke-linejoin="bevel" stroke-width="4.6667"/><path d="m75.942 26.447v-4.32l-13.536 0.288c-7.392 0 0.192 0-18.912-0.384l-9.504-0.192-0.96 0.768s0.384 8.352 0.384 13.632l-0.096 8.64h3.744l0.768-6.144c0.48-4.224 1.536-4.992 6.048-4.992h21.6l0.384 0.576-28.8 49.728 0.576 1.056c1.728-0.192 3.552-0.288 5.28-0.288s3.552 0.096 5.28 0.288c1.44-4.704 5.664-15.36 8.256-20.64l10.56-21.504c3.84-7.776 5.664-11.328 8.928-16.512z" aria-label="7"/><path d="m135.42 121.5c0-4.512-1.344-8.256-4.128-11.424-2.112-2.4-3.84-3.552-7.776-5.184 6.624-4.512 9.024-8.16 9.024-13.536 0-8.352-6.624-13.728-16.992-13.728-12.096 0-20.064 7.008-20.064 17.664 0 6.816 2.688 10.944 9.6 14.976-7.584 3.84-11.232 9.024-11.232 15.84 0 9.696 7.872 16.512 19.2 16.512 12.768 0 22.368-9.024 22.368-21.12zm-10.56 5.088c0 6.336-4.512 11.04-10.464 11.04-6.912 0-12-5.568-12-13.056 0-5.088 1.632-8.16 6.624-12.576l5.856 2.592c7.104 3.168 9.984 6.528 9.984 12zm-0.384-33.696c0 4.032-1.536 6.816-5.664 10.368l-4.224-1.824c-6.72-2.88-9.216-5.664-9.216-10.272 0-5.184 3.648-8.544 9.12-8.544 5.952 0 9.984 4.128 9.984 10.272z" aria-label="8
"/></g></svg>
