<svg xmlns="http://www.w3.org/2000/svg" xml:space="preserve" width="160.454" height="160.454" viewBox="0 0 160.45 160.45">
  <defs>
    <linearGradient id="a" x1="7.037" x2="7.037" y1="0" y2="207.58" gradientTransform="matrix(1.1221 0 0 .77297 0 0)" gradientUnits="userSpaceOnUse">
      <stop offset="0" stop-color="#79419d"/>
      <stop offset="1" stop-color="#592d92"/>
    </linearGradient>
  </defs>
  <path fill="url(#a)" fill-rule="evenodd" d="M0 0h160.45v160.45H0z"/>
  <g fill="#fff">
    <path stroke="#f9f9f9" stroke-linecap="square" stroke-linejoin="bevel" stroke-width="4.667" d="m16.474 143.98 127.51-127.51"/>
    <path d="M75.942 26.447v-4.32l-13.536.288c-7.392 0 .192 0-18.912-.384l-9.504-.192-.96.768s.384 8.352.384 13.632l-.096 8.64h3.744l.768-6.144c.48-4.224 1.536-4.992 6.048-4.992h21.6l.384.576-28.8 49.728.576 1.056a48.652 48.652 0 0 1 10.56 0c1.44-4.704 5.664-15.36 8.256-20.64l10.56-21.504c3.84-7.776 5.664-11.328 8.928-16.512z" aria-label="7"/>
    <path d="M135.42 121.5c0-4.512-1.344-8.256-4.128-11.424-2.112-2.4-3.84-3.552-7.776-5.184 6.624-4.512 9.024-8.16 9.024-13.536 0-8.352-6.624-13.728-16.992-13.728-12.096 0-20.064 7.008-20.064 17.664 0 6.816 2.688 10.944 9.6 14.976-7.584 3.84-11.232 9.024-11.232 15.84 0 9.696 7.872 16.512 19.2 16.512 12.768 0 22.368-9.024 22.368-21.12zm-10.56 5.088c0 6.336-4.512 11.04-10.464 11.04-6.912 0-12-5.568-12-13.056 0-5.088 1.632-8.16 6.624-12.576l5.856 2.592c7.104 3.168 9.984 6.528 9.984 12zm-.384-33.696c0 4.032-1.536 6.816-5.664 10.368l-4.224-1.824c-6.72-2.88-9.216-5.664-9.216-10.272 0-5.184 3.648-8.544 9.12-8.544 5.952 0 9.984 4.128 9.984 10.272z" aria-label="8"/>
  </g>
</svg>
