<?xml version="1.0" encoding="utf-8"?>
<!-- Generator: Adobe Illustrator 17.0.0, SVG Export Plug-In . SVG Version: 6.00 Build 0)  -->
<!DOCTYPE svg PUBLIC "-//W3C//DTD SVG 1.1//EN" "http://www.w3.org/Graphics/SVG/1.1/DTD/svg11.dtd">
<svg version="1.1" id="图层_1" xmlns="http://www.w3.org/2000/svg" xmlns:xlink="http://www.w3.org/1999/xlink" x="0px" y="0px"
	 width="595.28px" height="841.89px" viewBox="0 0 595.28 841.89" enable-background="new 0 0 595.28 841.89" xml:space="preserve">
<g>
	<path fill="none" stroke="#000000" stroke-linecap="round" stroke-linejoin="round" d="M320.833,393.705v-0.2
		C320.833,393.505,320.833,393.605,320.833,393.705"/>
	
		<line fill="none" stroke="#000000" stroke-linecap="round" stroke-linejoin="round" x1="320.833" y1="393.705" x2="320.833" y2="393.705"/>
	<path fill="none" stroke="#000000" stroke-linecap="round" stroke-linejoin="round" d="M325.133,439.105
		c-0.8-14.4-1.7-25.6-2.8-33.4c-1.2-8-1.6-12-1.5-12"/>
	<path fill="none" stroke="#000000" stroke-linecap="round" stroke-linejoin="round" d="M280.533,424.305
		c14.4,5.5,28.4,12.4,41.9,20.5c0.3,0.2,0.6,0.4,0.9,0.5"/>
	<path fill="none" stroke="#000000" stroke-linecap="round" stroke-linejoin="round" d="M324.233,473.205c-0.3-2.5-0.5-8.9-0.8-19
		l0.1-0.4c0.2-2.7,0.2-5.6-0.2-8.5"/>
	<path fill="none" stroke="#000000" stroke-linecap="round" stroke-linejoin="round" d="M364.233,603.405c0.1-0.3,0.2-0.6,0.2-0.9
		c0.5-2.4-2.7-10.4-9.6-24c-3.9-7.7-7.4-15.2-10.6-22.8c-2.6-5.9-5-11.9-7.2-17.9c-5-13.4-8.3-25.7-10.2-36.8
		c-0.8-4.8-1.4-10.7-2-17.3c-0.1-0.9-0.3-4.4-0.6-10.5"/>
	<path fill="none" stroke="#000000" stroke-linecap="round" stroke-linejoin="round" d="M323.333,445.305
		c6.7,3.2,17.8,10.7,33.4,22.7c2.5,2,4.7,3.8,6.7,5.5c1.9,1.7,4.6,4.6,8.2,8.8c1.7,2,5.5,9,11.5,20.9"/>
	<path fill="none" stroke="#000000" stroke-linecap="round" stroke-linejoin="round" d="M383.333,503.505c0.2,0.4,0.2,0.8,0.4,1.2
		c0.7,2,1.3,4,2,6.1"/>
	<path fill="none" stroke="#000000" stroke-linecap="round" stroke-linejoin="round" d="M383.133,503.205c-0.1-0.2-0.1-0.4-0.1-0.5
		c0,0.2,0.2,0.6,0.3,0.8"/>
	<path fill="none" stroke="#000000" stroke-linecap="round" stroke-linejoin="round" d="M383.133,503.205c0.1,0.1,0.1,0.2,0.2,0.3"
		/>
	<path fill="none" stroke="#000000" stroke-linecap="round" stroke-linejoin="round" d="M385.733,510.805l0.5,2.1
		c0,0.3,0.2,0.6,0.2,0.9c0.1,0.4,0.2,0.8,0.3,1.2c1,4.5,1.7,9.3,2,14.3"/>
	<path fill="none" stroke="#000000" stroke-linecap="round" stroke-linejoin="round" d="M388.733,529.305v0.1
		c-0.4,1.1-2.1-0.1-5.2-3.6c-3-3.4-6.8-7-11.6-10.5c-4.7-3.7-8.7-7.4-12.1-11.3c-11.8-8.8-23.6-19.1-35.6-30.8"/>
	<path fill="none" stroke="#000000" stroke-linecap="round" stroke-linejoin="round" d="M325.133,439.105
		c10.3,4.4,21.7,11.9,34.3,22.7c11.8,10,20.5,26.4,26.3,49"/>
	<path fill="none" stroke="#000000" stroke-linecap="round" stroke-linejoin="round" d="M388.733,529.305c0.1,0.4,0.1,0.8,0.2,1.2"
		/>
	<path fill="none" stroke="#000000" stroke-linecap="round" stroke-linejoin="round" d="M341.033,580.505c0.1,0.3,0.2,0.5,0.3,0.8"
		/>
	<path fill="none" stroke="#000000" stroke-linecap="round" stroke-linejoin="round" d="M341.333,581.305c0.7,2.6,1.3,4.6,1.6,6.1
		c2.5,13.9,2.1,27.7-1.1,41.7"/>
	<path fill="none" stroke="#000000" stroke-linecap="round" stroke-linejoin="round" d="M311.633,602.105c-0.2,1.4-0.3,2.9-0.6,4.3
		c-1.4,10.3-5.8,19.7-13.4,28.3"/>
	<path fill="none" stroke="#000000" stroke-linecap="round" stroke-linejoin="round" d="M341.333,581.305
		c-0.1,14.8-3.9,28.6-11.1,41.6c0-1-0.2-1.8-0.3-2.8c-0.7-7-3.1-13.5-7-19.3c0.6,5.1,0.3,10-1,14.5"/>
	<path fill="none" stroke="#000000" stroke-linecap="round" stroke-linejoin="round" d="M349.833,588.305c0.6,1.3,1.2,2.7,1.8,4
		c4.1,10,3.3,20.8-2.2,32.4"/>
	<path fill="none" stroke="#000000" stroke-linecap="round" stroke-linejoin="round" d="M321.933,615.305c-1.6,6-5,11.5-10.1,16.3
		c0.2-0.5,0.5-1.1,0.7-1.7c3.5-9,3.3-18-0.6-27"/>
	<path fill="none" stroke="#000000" stroke-linecap="round" stroke-linejoin="round" d="M335.133,705.305c-0.3-4.3-1.6-8.8-3.9-13.5
		c-2.4-4.8-4.3-15.3-5.7-31.7c-1.5-16.4-2.6-31.3-3.6-44.8"/>
	<path fill="none" stroke="#000000" stroke-linecap="round" stroke-linejoin="round" d="M268.733,371.405l-5.3-0.3
		c1.6,0,3,0,4.3,0.1"/>
	<path fill="none" stroke="#000000" stroke-linecap="round" stroke-linejoin="round" d="M267.733,371.205c-1-0.1-3.2-0.2-3.2-0.2
		s-7,0.3-15.1,1"/>
	<path fill="none" stroke="#000000" stroke-linecap="round" stroke-linejoin="round" d="M268.733,371.405c-0.4-0.1-0.7-0.2-1-0.2"/>
	<path fill="none" stroke="#000000" stroke-linecap="round" stroke-linejoin="round" d="M266.833,419.505c0.2,0.2,0.6,0.3,0.9,0.4"
		/>
	<path fill="none" stroke="#000000" stroke-linecap="round" stroke-linejoin="round" d="M266.833,419.505c0.1,0.1,0.4,0.2,0.6,0.3
		c0,0,0,0,0.1,0c0,0,0.2,0,0.2,0.1"/>
	<path fill="none" stroke="#000000" stroke-linecap="round" stroke-linejoin="round" d="M267.733,419.905c0.7,0.2,1.3,0.4,2,0.6
		c3.6,1.2,7.2,2.5,10.8,3.8"/>
	<path fill="none" stroke="#000000" stroke-linecap="round" stroke-linejoin="round" d="M244.733,413.705c7.2,1.5,14.5,3.5,22.1,5.8
		"/>
	<path fill="none" stroke="#000000" stroke-linecap="round" stroke-linejoin="round" d="M320.833,393.705c-5.9-4.2-13.5-8.2-23-11.9
		c-9.8-3.6-15.9-6-18.5-6.8c-2.4-1-6-2.2-10.6-3.6"/>
	
		<line fill="none" stroke="#000000" stroke-linecap="round" stroke-linejoin="round" x1="248.433" y1="372.005" x2="309.733" y2="407.805"/>
	<path fill="none" stroke="#000000" stroke-linecap="round" stroke-linejoin="round" d="M224.533,398.205c3-2.4,5.7-5.1,8.1-8.1
		c5.1-6.6,10.3-12.4,15.8-17.2"/>
	<path fill="none" stroke="#000000" stroke-width="0.25" stroke-linecap="round" stroke-linejoin="round" d="M124.934,357.705
		c-1.101,1.9,1.2,5.8,6.899,11.8c0.9,0.8,1.7,1.8,2.7,2.7c7.7,7.6,13.1,12.6,16.2,15.3c3,2.5,5.7,4.3,7.7,5.5c2.1,1,4.8,2.5,8.2,4.4
		c3.5,1.8,12.5,4.8,27,8.8l24.5,3"/>
	<path fill="none" stroke="#000000" stroke-width="0.25" stroke-linecap="round" stroke-linejoin="round" d="M124.934,357.705
		c19.19,12.515,38.631,24.78,58.464,36.258c19.328,11.185,40.461,12.697,61.335,19.742"/>
	<path fill="none" stroke="#000000" stroke-linecap="round" stroke-linejoin="round" d="M213.333,405.105c4.8-2.6,8.6-4.9,11.2-6.9"
		/>
	<path fill="none" stroke="#000000" stroke-width="0.25" stroke-linecap="round" stroke-linejoin="round" d="M226.233,396.205
		c-3.4-8-10.8-15.2-22.4-21.7c-11.5-6.4-30.2-12-55.8-16.7c-7-1.3-12.3-1.9-16.2-1.9c-3.8-0.1-6.2,0.6-6.899,1.8"/>
	<path fill="none" stroke="#000000" stroke-linecap="round" stroke-linejoin="round" d="M234.333,453.805c-1.6,4.8-1.6,11-0.1,18.5
		c0.2,0.8,0.3,1.5,0.5,2.3c0,0.3,0.1,0.7,0.2,1.2c-0.2-0.5-0.5-0.9-0.6-1.2c-0.4-0.8-0.9-1.5-1.2-2.3c-4.2-7.9-6.2-14.8-6.2-20.7
		c-3,2.7-4.6,5.6-5,8.3c-0.3,2.8-0.3,4.6,0,5.8l-2.3-6l-2.2-10"/>
	<path fill="none" stroke="#000000" stroke-linecap="round" stroke-linejoin="round" d="M216.833,449.905c-0.4,0.6-0.9,1.3-1.4,2.1
		c-1.8,3-3.3,6.2-4.5,9.4c0,0,0,0.1-0.1,0.2"/>
	<polyline fill="none" stroke="#000000" stroke-linecap="round" stroke-linejoin="round" points="217.433,449.705 217.433,449.205 
		216.833,449.905 	"/>
	
		<line fill="none" stroke="#000000" stroke-linecap="round" stroke-linejoin="round" x1="216.833" y1="449.905" x2="217.433" y2="449.705"/>
	<path fill="none" stroke="#000000" stroke-linecap="round" stroke-linejoin="round" d="M210.833,461.605c0.1,0.1,0.1,0.2,0.2,0.2"
		/>
	<path fill="none" stroke="#000000" stroke-linecap="round" stroke-linejoin="round" d="M210.833,461.605c0,0.2-0.1,0.3-0.2,0.4"/>
	<path fill="none" stroke="#000000" stroke-linecap="round" stroke-linejoin="round" d="M230.233,468.305c-4.3-2.2-8.8-2.1-13.3,0.2
		l-0.3,0.4"/>
	<path fill="none" stroke="#000000" stroke-linecap="round" stroke-linejoin="round" d="M220.633,477.305c0.5-0.2,0.9-0.4,1.4-0.5
		c0.6-0.3,1.1-0.4,1.7-0.5c4.6-1.7,8.1-0.5,10.6,3.5"/>
	<path fill="none" stroke="#000000" stroke-linecap="round" stroke-linejoin="round" d="M224.533,490.605c-0.1-0.1-0.2-0.2-0.2-0.3
		c-1.2-2.1-1.7-4.3-1.5-6.6c0-0.7,0.1-1.4,0.3-2.1"/>
	<path fill="none" stroke="#000000" stroke-linecap="round" stroke-linejoin="round" d="M223.133,481.605c0.1-0.3,0.2-0.7,0.3-1
		c0.5-1.4,1.2-2.3,2.1-2.8"/>
	<path fill="none" stroke="#000000" stroke-linecap="round" stroke-linejoin="round" d="M232.033,481.305l-1.6,0.1l-1,3.8l-0.5,0.2
		c-0.5,0-1.1-0.3-2-0.9c-0.3-0.2-0.6-0.5-0.8-0.8c-0.4-0.4-0.7-1-0.9-1.8l-2.1-0.3"/>
	<path fill="none" stroke="#000000" stroke-linecap="round" stroke-linejoin="round" d="M215.333,507.505c-0.3-1.4-0.5-2.8-0.6-4.3
		c-0.6-6.3-1.1-12.4-1.8-18.4c0-0.3,0-0.7,0-1.1c-0.6-5.8-1.4-13-2.3-21.7"/>
	<path fill="none" stroke="#000000" stroke-linecap="round" stroke-linejoin="round" d="M217.633,481.705c0,0.5,0,0.8,0,1.3
		c0,0.3,0,0.4,0,0.7c0.3,2.8,1.3,5.4,3.2,7.6"/>
	<path fill="none" stroke="#000000" stroke-linecap="round" stroke-linejoin="round" d="M215.833,476.605c0.4,0.2,0.9,0.4,1.4,0.6
		c1.2,0.2,2.2,0.3,3.4,0.1"/>
	<path fill="none" stroke="#000000" stroke-linecap="round" stroke-linejoin="round" d="M216.033,481.605c0.1-0.3,0.4-0.6,0.6-0.8
		c1.1-1.5,2.5-2.6,4-3.5"/>
	
		<line fill="none" stroke="#000000" stroke-linecap="round" stroke-linejoin="round" x1="224.633" y1="490.705" x2="224.533" y2="490.605"/>
	<path fill="none" stroke="#000000" stroke-linecap="round" stroke-linejoin="round" d="M224.633,490.705L224.633,490.705
		c-0.1,0-0.1,0-0.1-0.1"/>
	<path fill="none" stroke="#000000" stroke-linecap="round" stroke-linejoin="round" d="M218.333,491.605c0.2,0.2,1.5,0.8,3.7,1.8
		c0.1,0,0.1,0,0.3,0.1c0.6,0.3,1.2,0.4,1.9,0.6c2.1,0.4,4.5,0.6,7.4,0.2"/>
	<path fill="none" stroke="#000000" stroke-linecap="round" stroke-linejoin="round" d="M226.833,493.005c-1-0.1-1.7-0.8-2.2-2.3"/>
	<path fill="none" stroke="#000000" stroke-linecap="round" stroke-linejoin="round" d="M206.933,474.505c-0.5,2.4-0.9,5.4-1.1,9.2
		c-0.2,1.6-0.3,3.3-0.399,5.2c-0.2,6.2,2.499,13.6,8.2,22.2"/>
	<path fill="none" stroke="#000000" stroke-linecap="round" stroke-linejoin="round" d="M206.933,474.505c0.2,0.4,1,1.7,2.6,3.8
		c-0.8-6.5-0.4-11.9,1.1-16.3"/>
	<path fill="none" stroke="#000000" stroke-linecap="round" stroke-linejoin="round" d="M215.333,507.505c-0.4,0-0.6,0-0.7,0
		c-0.3,1.2-0.7,2.3-1,3.6"/>
	<path fill="none" stroke="#000000" stroke-linecap="round" stroke-linejoin="round" d="M213.633,511.105c-0.7,3.2-1.2,6.5-1.7,9.8
		c-0.2,0.9-0.3,1.9-0.5,2.8c-0.1,0.8-0.3,1.7-0.4,2.6c-1.8,12.2-4.1,24.4-6.9,36.4c-1.2,4.9-2.4,9.8-3.7,14.8
		c-3,11.6-2.3,22.9,2.2,33.8"/>
	<path fill="none" stroke="#000000" stroke-linecap="round" stroke-linejoin="round" d="M231.033,536.505c-3.1-3.5-6.2-7.7-9.2-12.8
		c-0.3-0.5-0.6-1.1-0.9-1.7c-0.3-0.3-0.5-0.7-0.6-1.1c-2.4-4.5-4.1-9-5-13.4"/>
	<path fill="none" stroke="#000000" stroke-linecap="round" stroke-linejoin="round" d="M218.133,409.205c-5.8,5-10.2,11.6-13.3,20
		c-6.2,16.1-5.399,31.3,2.1,45.3"/>
	<path fill="none" stroke="#000000" stroke-linecap="round" stroke-linejoin="round" d="M280.533,424.305c5,1,11.9,3,20.7,6
		c8.7,2.9,16.7,5.9,23.9,8.8"/>
	<path fill="none" stroke="#000000" stroke-linecap="round" stroke-linejoin="round" d="M277.933,468.805l0.1-0.3
		c-0.1,0-0.2,0.2-0.2,0.2C277.833,468.805,277.833,468.805,277.933,468.805"/>
	<path fill="none" stroke="#000000" stroke-linecap="round" stroke-linejoin="round" d="M234.833,453.105
		c4.5,11.1,9.6,19.6,15.2,25.7c-0.9-8.9-0.1-17.5,2.6-25.7c0.1-0.3,0.2-0.4,0.2-0.7c0.1,0.3,0.4,0.5,0.6,0.8
		c5.5,6.9,8.3,14.2,8.5,21.9"/>
	<path fill="none" stroke="#000000" stroke-linecap="round" stroke-linejoin="round" d="M272.433,474.305c-1.4-3.6-3-7.1-4.9-10.6
		c-0.2,1-0.5,2.1-0.6,3.1c-0.5,3-1.1,5.6-2,7.7"/>
	<path fill="none" stroke="#000000" stroke-linecap="round" stroke-linejoin="round" d="M261.933,475.105c-0.1,0.1-0.4,0.2-0.6,0.3
		c-0.1,0-0.2,0.1-0.3,0.1c-0.1,0.1-0.3,0.2-0.4,0.3c-0.2,0.1-0.3,0.1-0.4,0.1"/>
	<path fill="none" stroke="#000000" stroke-linecap="round" stroke-linejoin="round" d="M264.933,474.505c-0.7,1.6-1.5,2.8-2.5,3.8
		c-0.1,0.2-0.4,0.5-0.5,0.6c0-0.1,0-0.4,0-0.6c0-1,0.1-2.1,0-3.2"/>
	<path fill="none" stroke="#000000" stroke-linecap="round" stroke-linejoin="round" d="M258.433,486.205c0.7-0.6,2.1-1.4,4.3-2.5
		c0.1,0,0.2-0.2,0.3-0.2"/>
	<path fill="none" stroke="#000000" stroke-linecap="round" stroke-linejoin="round" d="M263.033,483.505c0.3-0.1,0.4-0.2,0.7-0.3
		c0,0,0,0.1,0,0.5"/>
	<path fill="none" stroke="#000000" stroke-linecap="round" stroke-linejoin="round" d="M263.033,483.505c0.3,0,0.4,0.1,0.7,0.2"/>
	<path fill="none" stroke="#000000" stroke-linecap="round" stroke-linejoin="round" d="M258.833,482.205c0.4,0.2,0.9,0.4,1.4,0.6
		c1,0.2,1.9,0.5,2.8,0.7"/>
	
		<line fill="none" stroke="#000000" stroke-linecap="round" stroke-linejoin="round" x1="258.833" y1="490.105" x2="260.033" y2="496.105"/>
	<path fill="none" stroke="#000000" stroke-linecap="round" stroke-linejoin="round" d="M267.333,491.305l0.5-0.6c0.1,0,0.4,0,0.6,0
		c0.8-0.2,1.5,0.1,2,0.7c1,1.9,2.3,1.8,3.5-0.5c-0.2-1,0-1.8,0.7-2.5c0.8-0.6,1.6-1.1,2.4-1.6c0.3,0,0.5-0.1,0.9,0"/>
	<path fill="none" stroke="#000000" stroke-linecap="round" stroke-linejoin="round" d="M269.533,486.105c-1.1,1.3-2.1,2.8-2.6,4.5
		c-1,3.2-0.9,6.3,0.5,9.4"/>
	<path fill="none" stroke="#000000" stroke-linecap="round" stroke-linejoin="round" d="M232.333,480.105c0,0.4,0,0.9,0.1,1.4
		c0,0.8,0,1.5,0,2.2c0,2.8-0.5,5.6-1.4,8.4"/>
	<path fill="none" stroke="#000000" stroke-linecap="round" stroke-linejoin="round" d="M231.533,486.605c-0.5,0.3-1,0.6-1.4,0.9
		c-2.8-0.4-4.7,0.7-5.5,3.2"/>
	<path fill="none" stroke="#000000" stroke-linecap="round" stroke-linejoin="round" d="M238.033,471.805c3.6,3.3,5.1,7.2,4.5,11.9
		c-0.1,0.7-0.3,1.4-0.4,2.1c-1.9,7.2-4.7,14-8.7,20.3l5.5,5.7"/>
	<path fill="none" stroke="#000000" stroke-linecap="round" stroke-linejoin="round" d="M260.833,498.605c1.4,0.8,2.9,1.7,4.5,2.5
		c2.2,1.1,4.6,1.8,7,2.2c2.5,0.2,5,0,7.6-0.4"/>
	<path fill="none" stroke="#000000" stroke-linecap="round" stroke-linejoin="round" d="M299.533,494.105c0.3-0.2,0.5-0.3,0.8-0.4
		c0.1,0,0.2,0,0.4,0c0.2,0.1,0.5,0.4,0.7,0.7c0.2,0.1,0.3,0.3,0.3,0.4c0.1,0.2,0.1,0.4,0.1,0.5c0.1,1.2-0.3,2.1-1,2.8"/>
	<path fill="none" stroke="#000000" stroke-linecap="round" stroke-linejoin="round" d="M288.333,521.305c5.5-4.1,8.6-8.9,9.4-14
		c0.1-0.8,0.4-1.5,1-2c4.7-4.7,6.8-9.9,6.5-15.6c-0.3-0.1-1-0.4-2.2-1c-2.2,1.1-4.5,2.9-6.8,5.4"/>
	<path fill="none" stroke="#000000" stroke-linecap="round" stroke-linejoin="round" d="M267.933,548.305c7.5-12,13.5-24.9,18-38.6
		c2.9-8.7,2.9-17.4,0-26c-0.1,0-0.1-0.2-0.1-0.2c-0.6-1.7-1.4-3.5-2.1-5.2c-1.6-3.1-3.5-6.4-5.8-9.5"/>
	<path fill="none" stroke="#000000" stroke-linecap="round" stroke-linejoin="round" d="M282.333,479.005c-0.1-0.2-0.3-0.5-0.4-0.7
		c-0.4-0.5-0.8-1-1.4-1.5s-1.4-0.9-2.2-1.1"/>
	<path fill="none" stroke="#000000" stroke-linecap="round" stroke-linejoin="round" d="M276.433,484.005c0-0.1,0-0.2,0.1-0.3
		c0.7-1.8,1.2-3.5,1.4-5.4c0.2-0.9,0.4-1.8,0.4-2.6"/>
	<path fill="none" stroke="#000000" stroke-linecap="round" stroke-linejoin="round" d="M275.833,483.905c-0.1-0.1-0.1-0.1-0.1-0.2
		c-0.5-1.8-1-3.6-1.7-5.4c-0.5-1.3-1-2.7-1.6-4"/>
	<path fill="none" stroke="#000000" stroke-linecap="round" stroke-linejoin="round" d="M276.433,484.005c-0.2,0-0.5-0.1-0.6-0.1"/>
	<path fill="none" stroke="#000000" stroke-linecap="round" stroke-linejoin="round" d="M276.033,484.905c-0.1-0.3-0.2-0.6-0.2-1"/>
	<path fill="none" stroke="#000000" stroke-linecap="round" stroke-linejoin="round" d="M276.033,484.905c0.2-0.2,0.3-0.6,0.4-0.9"
		/>
	<path fill="none" stroke="#000000" stroke-linecap="round" stroke-linejoin="round" d="M276.433,484.005c0.6,0.3,1.4,0.4,2,0.7
		c2.3,0.9,4,2.3,5.4,4.1"/>
	<path fill="none" stroke="#000000" stroke-linecap="round" stroke-linejoin="round" d="M263.733,483.705c5.7-1.4,9.6-1.4,11.7,0
		c0.1,0.1,0.3,0.1,0.4,0.2"/>
	<path fill="none" stroke="#000000" stroke-linecap="round" stroke-linejoin="round" d="M282.333,491.805c-0.3,1-0.5,2-0.9,2.9
		c-0.9,3.1-2.6,5.6-5.1,7.6"/>
	<path fill="none" stroke="#000000" stroke-linecap="round" stroke-linejoin="round" d="M276.033,485.205c0-0.2,0-0.3,0-0.3"/>
	<path fill="none" stroke="#000000" stroke-linecap="round" stroke-linejoin="round" d="M280.333,495.605l1-0.8
		c-1.4,0.8-3.4,0.9-5.9,0.2c-2.5-0.6-5.1,0.4-8,3.2"/>
	<path fill="none" stroke="#000000" stroke-linecap="round" stroke-linejoin="round" d="M295.533,506.105v-0.8c0-0.4,0-0.8,0.1-1.2
		c0.2-0.8,0.4-1.6,0.8-2.2c0-0.2,0.1-0.5,0.2-0.8c0.1-0.1,0.1-0.2,0.1-0.3c0.2-0.8,0.5-1.5,0.8-2c0.1,0,0.2-0.1,0.2-0.3
		c0.2-0.4,0.3-0.8,0.6-1.4"/>
	<path fill="none" stroke="#000000" stroke-linecap="round" stroke-linejoin="round" d="M295.533,492.105c-0.1,3.4-0.6,7.3-1.6,11.7
		c-1,4.4-3.5,11.3-7.2,20.7"/>
	<path fill="none" stroke="#000000" stroke-linecap="round" stroke-linejoin="round" d="M264.933,474.505c2-0.7,4.5-0.8,7.5-0.2"/>
	<path fill="none" stroke="#000000" stroke-linecap="round" stroke-linejoin="round" d="M278.333,475.705c0.1-2.3,0-4.6-0.4-6.9"/>
	<path fill="none" stroke="#000000" stroke-linecap="round" stroke-linejoin="round" d="M218.133,409.205c8.7,1,17.6,2.5,26.6,4.5"
		/>
	<path fill="none" stroke="#000000" stroke-linecap="round" stroke-linejoin="round" d="M224.533,398.205
		c14.443,7.819,28.491,14.856,42.3,21.3"/>
	<path fill="none" stroke="#000000" stroke-linecap="round" stroke-linejoin="round" d="M288.333,539.405l-0.9-2.3
		c-0.7-2.4-1-6.6-0.7-12.6"/>
	<path fill="none" stroke="#000000" stroke-linecap="round" stroke-linejoin="round" d="M288.333,539.405l1.7-5
		c-0.8,2.9-0.1,1.4,2.4-4.4c3-7.1,5.4-15.3,7.1-24.7"/>
	<path fill="none" stroke="#000000" stroke-linecap="round" stroke-linejoin="round" d="M267.933,548.305c2.5-2.1,5.3-5,8.4-8.5
		c4-4.4,7.4-9.5,10.4-15.3"/>
	<path fill="none" stroke="#000000" stroke-linecap="round" stroke-linejoin="round" d="M282.433,551.805c0.7-1.2,1.3-2.3,2-3.4
		c0-0.2,0.1-0.6,0.3-0.8l3.6-8.2"/>
	<path fill="none" stroke="#000000" stroke-linecap="round" stroke-linejoin="round" d="M271.733,570.805c0.4-0.8,0.8-1.5,1.2-2.4
		c3.2-5.5,6.4-11.1,9.5-16.6"/>
	<path fill="none" stroke="#000000" stroke-linecap="round" stroke-linejoin="round" d="M257.033,668.905
		c-2.1-9.8-2.6-19.7-1.8-29.7c1-13.9,5.2-26.6,12.6-38.3c8.1-13.1,17-25.6,26.4-37.7l1.5,4.3c2.1,6.8,3.7,13.7,5.1,20.6
		c2.7,15,1.8,30.1-2.9,45.4"/>
	<path fill="none" stroke="#000000" stroke-linecap="round" stroke-linejoin="round" d="M276.433,532.305c-1.5,1.4-3.5,2.8-6.3,4.2
		c-2.7,1.4-6.3,3-10.8,4.7c-0.1,0-0.2,0.1-0.3,0.1c-0.2,0-0.4,0.1-0.6,0.2"/>
	<path fill="none" stroke="#000000" stroke-linecap="round" stroke-linejoin="round" d="M247.933,527.805c-1,0.5-2.6,0.8-5,0.9
		c-2.3,0.1-4.9-1.1-7.7-3.5"/>
	<path fill="none" stroke="#000000" stroke-linecap="round" stroke-linejoin="round" d="M258.433,541.505c-4.4,1.5-9.9,2.9-16.6,4.3
		c-2.6-1.4-5.9-4.1-9.7-8.1c-0.4-0.4-0.7-0.8-1.1-1.2"/>
	<path fill="none" stroke="#000000" stroke-linecap="round" stroke-linejoin="round" d="M236.833,593.305c-1.6-1.5-3.7-6.8-6.2-16
		c-2.5-9.3-2.5-22.3,0.2-39.1c-0.1-0.4,0-1,0.2-1.7"/>
	<path fill="none" stroke="#000000" stroke-linecap="round" stroke-linejoin="round" d="M266.033,549.805c0.6-0.4,1.3-1,1.9-1.5"/>
	<path fill="none" stroke="#000000" stroke-linecap="round" stroke-linejoin="round" d="M257.433,564.005c0-0.6,0.1-1.1,0.1-1.3
		c1.7-6.9,1.9-13.9,0.9-21.2"/>
	<path fill="none" stroke="#000000" stroke-linecap="round" stroke-linejoin="round" d="M282.433,551.805
		c-6.4,3.7-11.1,6.2-14.4,7.5c-3.6,1.5-7.2,3.1-10.6,4.7"/>
	<path fill="none" stroke="#000000" stroke-linecap="round" stroke-linejoin="round" d="M251.233,586.405
		c6.2-3.9,11.8-8.2,17.1-13.2l3.4-2.4"/>
	<path fill="none" stroke="#000000" stroke-linecap="round" stroke-linejoin="round" d="M251.233,586.405c-0.1-0.6-0.3-1.1-0.5-1.6
		c-1.6-4.7-4.8-8.7-9.4-12"/>
	<path fill="none" stroke="#000000" stroke-linecap="round" stroke-linejoin="round" d="M240.433,572.205l1,0.7
		c-0.1,0-0.1-0.1-0.1-0.1"/>
	<path fill="none" stroke="#000000" stroke-linecap="round" stroke-linejoin="round" d="M241.333,572.805c-0.2-0.3-0.3-0.5-0.4-0.9"
		/>
	<path fill="none" stroke="#000000" stroke-linecap="round" stroke-linejoin="round" d="M240.933,571.905c-0.1,0.1-0.3,0.2-0.5,0.3"
		/>
	<path fill="none" stroke="#000000" stroke-linecap="round" stroke-linejoin="round" d="M241.333,572.805c-0.3-0.2-0.6-0.4-0.9-0.6"
		/>
	<path fill="none" stroke="#000000" stroke-linecap="round" stroke-linejoin="round" d="M261.033,608.305c0.4-1.8,0.7-3.6,1.1-5.4
		c1.8-7.8,3.9-15.6,6.2-23.3c0.9-3,2-5.9,3.4-8.8"/>
	<path fill="none" stroke="#000000" stroke-linecap="round" stroke-linejoin="round" d="M215.133,631.905c3-3.6,6-7.3,8.9-11
		c1.9-2.3,4.2-4.8,6.6-7.2c7.2-7.2,16.5-14.4,27.9-21.9"/>
	<path fill="none" stroke="#000000" stroke-linecap="round" stroke-linejoin="round" d="M257.433,564.005c-5.2,2-10.6,4.7-16.5,7.9"
		/>
	<path fill="none" stroke="#000000" stroke-linecap="round" stroke-linejoin="round" d="M223.333,609.305c-0.5-0.2-1-0.5-1.4-0.9
		c-1-0.6-1.8-1.4-2.5-2.2c-3-3.9-5.2-8.2-6.5-12.9c-1.2-4.7-2.3-9.3-3.1-14"/>
	<path fill="none" stroke="#000000" stroke-linecap="round" stroke-linejoin="round" d="M213.033,623.305c-0.2-0.2-0.4-0.3-0.6-0.5
		c-0.6-1.2-1.1-2.5-1.5-3.9c-0.3-0.9-0.7-1.8-1-2.8c-1.8-4.5-2.7-9.2-2.8-14c-0.1-1.8-0.2-3.5-0.2-5.2c-0.2-3.2-0.3-6.4-0.3-9.6
		c0-0.8,0-1.6,0.2-2.4c0.4-2.1,0.6-4.3,0.6-6.4"/>
	<path fill="none" stroke="#000000" stroke-linecap="round" stroke-linejoin="round" d="M228.333,603.305c0.3-0.4,0.6-0.7,0.9-1
		c6.2-6.6,13.6-11.9,22-15.9"/>
	<path fill="none" stroke="#000000" stroke-linecap="round" stroke-linejoin="round" d="M223.333,609.305c0.1-0.2,0.3-0.5,0.4-0.7
		c1.4-1.7,2.7-3.3,4.2-5"/>
	<path fill="none" stroke="#000000" stroke-linecap="round" stroke-linejoin="round" d="M224.633,610.105c-0.4-0.3-0.9-0.5-1.3-0.8"
		/>
	<path fill="none" stroke="#000000" stroke-linecap="round" stroke-linejoin="round" d="M204.033,663.805c-0.1-0.1-0.1-0.1-0.1-0.2
		c-1.7-5.6-1.3-11,1-16.4c2.499-5.5,5.8-10.6,10.2-15.3"/>
	<path fill="none" stroke="#000000" stroke-linecap="round" stroke-linejoin="round" d="M208.433,699.105c1-8.9,1-15.4,0-19.1
		c-1-3.9-2-7.4-2.7-10.7c-0.7-3.1-1.3-4.9-1.7-5.5"/>
	<path fill="none" stroke="#000000" stroke-linecap="round" stroke-linejoin="round" d="M173.434,705.705l2-16.7
		c5.2-6.2,14.7-14.6,28.6-25.2"/>
	<path fill="none" stroke="#000000" stroke-linecap="round" stroke-linejoin="round" d="M307.433,628.705c0.2,2.6,0.5,5.2,0.8,7.9
		c1.7,12.4,4.4,24.5,8.2,36.5"/>
	<path fill="none" stroke="#000000" stroke-linecap="round" stroke-linejoin="round" d="M281.233,654.305c0.7-1,1.4-1.8,2.1-2.8
		c2.5-3.4,4.4-7,5.7-11"/>
	<path fill="none" stroke="#000000" stroke-linecap="round" stroke-linejoin="round" d="M281.233,654.305c-0.2,0.4-0.3,0.7-0.7,0.9
		c-0.3,0.2-0.6,0.4-0.8,0.4C280.333,655.205,280.733,654.705,281.233,654.305"/>
	<path fill="none" stroke="#000000" stroke-linecap="round" stroke-linejoin="round" d="M278.433,664.705
		c4.6-4.6,8.5-10.1,11.5-16.5"/>
	<path fill="none" stroke="#000000" stroke-linecap="round" stroke-linejoin="round" d="M269.433,674.905c0.3-2.4,1.2-5.8,2.8-10.3
		s4.3-13.4,8.2-26.5"/>
	<path fill="none" stroke="#000000" stroke-linecap="round" stroke-linejoin="round" d="M275.433,707.105c0.3-3,0.4-5,0.4-6
		l0.1-24.6c0.7-0.5,2.4-2.3,5.1-5.3c2.8-2.9,5.4-7.7,8-14.3"/>
	<path fill="none" stroke="#000000" stroke-linecap="round" stroke-linejoin="round" d="M267.933,705.505c0.6-1.8,1.7-4.4,3.4-8.2
		c1.6-3.8,2.7-9.6,3.3-17.6"/>
	<path fill="none" stroke="#000000" stroke-linecap="round" stroke-linejoin="round" d="M264.633,695.705c3.2-4.6,5.8-9.5,7.8-14.6"
		/>
	<path fill="none" stroke="#000000" stroke-linecap="round" stroke-linejoin="round" d="M215.133,631.905c0.5-8.5,3.2-16,8.2-22.6"
		/>
	<path fill="none" stroke="#000000" stroke-linecap="round" stroke-linejoin="round" d="M302.733,402.705c11.1-0.5,17.1-3.5,18.1-9"
		/>
</g>
<polyline fill="none" stroke="#000000" stroke-linecap="round" stroke-linejoin="round" points="371.994,482.763 363.433,473.505 
	341.395,456.619 377.68,492.596 330.477,449.304 "/>
<path fill="none" stroke="#000000" stroke-linecap="round" stroke-linejoin="round" d="M353.639,465.639"/>
</svg>
